<svg id="visual" viewBox="0 0 900 600" width="900" height="600" xmlns="http://www.w3.org/2000/svg" xmlns:xlink="http://www.w3.org/1999/xlink" version="1.1"><rect width="900" height="600" fill="#0f4c5c"></rect><g><g transform="translate(246 599)"><path d="M101.8 -35.6C112.6 0.2 88.8 44.7 51.7 71.9C14.6 99 -35.7 108.7 -65.2 87.8C-94.7 66.8 -103.4 15.2 -89.1 -25.4C-74.7 -66.1 -37.4 -95.7 4.1 -97.1C45.5 -98.4 91 -71.4 101.8 -35.6Z" stroke="#f77f00" fill="none" stroke-width="20"></path></g><g transform="translate(769 533)"><path d="M66.4 -21.6C75.1 5.1 63.5 38.3 41.1 54C18.7 69.7 -14.6 67.8 -35.4 51.9C-56.2 36.1 -64.5 6.2 -56.5 -19.5C-48.6 -45.3 -24.3 -66.9 2.3 -67.6C28.9 -68.4 57.7 -48.3 66.4 -21.6Z" stroke="#f77f00" fill="none" stroke-width="20"></path></g><g transform="translate(759 178)"><path d="M62 -22.2C70.7 6.6 61.4 39.1 39.6 55.1C17.9 71 -16.3 70.3 -40.9 53.2C-65.5 36.1 -80.5 2.5 -72 -25.9C-63.6 -54.3 -31.8 -77.6 -2.6 -76.7C26.7 -75.9 53.3 -50.9 62 -22.2Z" stroke="#f77f00" fill="none" stroke-width="20"></path></g></g></svg>